<svg width="16" height="16" viewBox="0 0 16 16" fill="none" xmlns="http://www.w3.org/2000/svg">
<g clip-path="url(#clip0_92_487)">
<path d="M12.763 3.03105L12.7618 3.03016C12.7567 3.02658 12.7505 3.0248 12.7454 3.02152C12.7585 2.84238 12.6795 2.6695 12.5215 2.56845C11.7543 2.07664 10.2699 1.35859 8.79956 1.94758V0.830418C8.79956 0.372585 8.46781 0 8.06005 0H7.39745C6.98939 0 6.65764 0.372585 6.65764 0.830418V2.05399C5.99474 1.93595 4.5506 1.81911 3.16279 2.64804C2.95236 2.77323 2.86592 3.02211 2.95266 3.25252C2.9613 3.27607 2.9774 3.29365 2.98902 3.31482C2.95862 3.32286 2.92702 3.32972 2.89692 3.33777C2.82657 3.35655 2.75921 3.39142 2.70079 3.43941C1.05903 4.80545 0.117432 6.75303 0.117432 8.78228C0.117432 12.7621 3.65341 15.9997 8.00014 15.9997C12.3469 15.9997 15.8829 12.7621 15.8829 8.78228C15.8829 6.50564 14.7457 4.40932 12.763 3.03105ZM6.65645 2.66115C6.8028 2.69185 6.95362 2.65489 7.06987 2.55981C7.18701 2.46473 7.25378 2.32314 7.25378 2.17202V0.830418C7.25378 0.698672 7.33128 0.596136 7.39745 0.596136H8.06005C8.12652 0.596136 8.20342 0.698672 8.20342 0.830418V2.09691C8.20342 2.26681 8.28867 2.42329 8.43174 2.5151C8.57512 2.6075 8.75366 2.62032 8.90925 2.54878C9.99869 2.05071 11.151 2.47456 11.8881 2.88381C11.193 2.87487 10.6273 2.93001 10.1939 3.03672C9.99779 3.08471 9.85204 3.24447 9.82253 3.44388C9.79242 3.64806 9.8887 3.84746 10.0672 3.95298C10.5006 4.20783 10.7844 4.49397 10.9728 4.77505C11.1084 4.97744 11.1957 5.17715 11.247 5.36046C10.5939 4.82572 9.86158 4.6293 9.35963 4.55895C9.19241 4.5354 9.05053 4.52616 8.94591 4.52259C8.8088 4.51812 8.67884 4.56849 8.58048 4.66506C8.48301 4.76074 8.42817 4.89458 8.43025 5.03199C8.4541 6.56286 7.92503 7.58971 7.61742 8.0544C7.32383 7.43203 7.23321 6.09311 7.24961 4.99294C7.25378 4.73899 7.06451 4.52289 6.80876 4.4898C6.73216 4.47996 6.65466 4.47519 6.57687 4.47519C6.56196 4.47519 6.54676 4.47788 6.53216 4.47847C6.49162 4.47937 6.45078 4.48384 6.40995 4.48712C6.34855 4.49218 6.28714 4.49815 6.22544 4.50858C6.1855 4.51514 6.14556 4.52378 6.10562 4.53242C6.04213 4.54614 5.97894 4.56163 5.91575 4.57982C5.8773 4.59085 5.83915 4.60277 5.801 4.61558C5.73572 4.63734 5.67104 4.66089 5.60636 4.68682C5.56999 4.70143 5.53393 4.71574 5.49786 4.73153C5.43169 4.76045 5.36611 4.79115 5.30113 4.82364C5.26716 4.84033 5.23318 4.85672 5.19949 4.87431C5.13243 4.90948 5.06685 4.94674 5.00128 4.98489C4.97058 5.00278 4.93988 5.01947 4.90947 5.03795C4.83824 5.08117 4.76908 5.12588 4.70053 5.17118C4.67817 5.18609 4.65492 5.2001 4.63287 5.215C4.54255 5.2761 4.45462 5.3384 4.36967 5.40129C4.47638 5.20785 4.59024 5.03556 4.70619 4.88057C4.71245 4.87222 4.71841 4.86268 4.72437 4.85464C4.84628 4.69398 4.96998 4.55359 5.0904 4.43168C5.091 4.43108 5.09159 4.43048 5.09219 4.42989C5.25106 4.26893 5.40158 4.14345 5.53422 4.04389C5.5533 4.02958 5.57357 4.01319 5.59175 4.00007C5.60248 3.99232 5.61113 3.98696 5.62156 3.97951C5.65822 3.95358 5.69458 3.92824 5.72678 3.90708C5.88296 3.80484 5.96881 3.626 5.94943 3.43971C5.93065 3.25312 5.81053 3.09454 5.63616 3.02569C5.62096 3.01973 5.60218 3.01675 5.58639 3.01108C5.52081 2.98784 5.45076 2.96727 5.37684 2.94909C5.33154 2.93776 5.28564 2.92703 5.23735 2.91809C5.23049 2.91689 5.22453 2.91481 5.21738 2.91362C5.21291 2.91272 5.20873 2.91391 5.20426 2.91332C4.86417 2.8537 4.46297 2.84476 3.9953 2.89484C5.11961 2.42866 6.2013 2.56696 6.65645 2.66115ZM7.99984 15.4039C3.98218 15.4039 0.71327 12.4336 0.71327 8.78258C0.71327 6.93605 1.572 5.16016 3.06771 3.90946C3.71064 3.73837 4.40246 3.60126 5.10322 3.5017C5.12677 3.50588 5.1527 3.50826 5.17535 3.51303C5.19413 3.51691 5.2135 3.52048 5.23139 3.52466C5.20456 3.54403 5.17475 3.56847 5.14644 3.58993C5.11544 3.61378 5.08593 3.63524 5.05344 3.66147C5.02512 3.68442 4.99502 3.71184 4.96581 3.73658C4.92974 3.76728 4.89487 3.7956 4.85761 3.82928C4.82244 3.86117 4.78607 3.89813 4.75001 3.93301C4.71692 3.9649 4.68473 3.99411 4.65105 4.02839C4.59084 4.08979 4.53003 4.15745 4.46923 4.2269C4.45909 4.23853 4.44926 4.24807 4.43912 4.25969C4.15357 4.59174 3.86683 5.01529 3.63464 5.54496C3.54134 5.75868 3.60364 5.99713 3.78993 6.13782C3.97592 6.27851 4.23137 6.27314 4.4111 6.1253C4.9205 5.70592 5.87223 5.02155 6.65287 5.07312C6.64512 5.91159 6.68954 7.7304 7.18791 8.50657C7.27733 8.64576 7.42964 8.73191 7.59417 8.73668C7.59924 8.73668 7.60401 8.73668 7.60908 8.73668C7.76824 8.73668 7.91817 8.66067 8.01266 8.53101C8.32176 8.10626 9.02997 6.93456 9.02758 5.1229C9.46306 5.15151 10.3486 5.29786 11.0527 5.98551C11.2065 6.13543 11.43 6.1709 11.6211 6.07522C11.8142 5.97925 11.9218 5.77865 11.8947 5.56374C11.8774 5.42812 11.8467 5.27908 11.7981 5.1229C11.796 5.11604 11.7948 5.10978 11.7928 5.10263C11.7469 4.95866 11.6813 4.80814 11.5984 4.65582C11.5871 4.63466 11.5787 4.61409 11.5665 4.59293C11.5293 4.52825 11.4837 4.46327 11.4384 4.39859C11.4226 4.37594 11.4103 4.35329 11.3936 4.33063C11.3549 4.27877 11.3078 4.2272 11.2634 4.17564C11.233 4.14017 11.2071 4.1044 11.174 4.06923C11.1352 4.02809 11.0875 3.98785 11.0446 3.94732C10.9975 3.90261 10.9546 3.8573 10.9024 3.81319C10.8574 3.77533 10.8029 3.73897 10.7537 3.70171C10.6944 3.6567 10.6395 3.6108 10.574 3.56698C10.723 3.54135 10.909 3.5181 11.1355 3.5017C11.1445 3.50111 11.1537 3.50051 11.1629 3.49992C11.2077 3.49694 11.2544 3.49425 11.3021 3.49187C11.3278 3.49068 11.3537 3.48948 11.3802 3.48829C11.4172 3.4868 11.4545 3.48531 11.4932 3.48412C11.5403 3.48263 11.5889 3.48173 11.6387 3.48114C11.6616 3.48084 11.6843 3.48024 11.7078 3.47995C11.7987 3.47905 11.895 3.47965 11.9949 3.48114L12.1019 3.49068C12.1901 3.5026 12.2786 3.51303 12.3671 3.52376L12.4411 3.53241C14.2497 4.7977 15.2867 6.70981 15.2867 8.78168C15.2867 12.4336 12.0178 15.4039 7.99984 15.4039Z" fill="#4758DC"/>
<path d="M1.92314 9.15336C1.89929 8.99062 1.75056 8.87586 1.58483 8.90179C1.42209 8.92564 1.30942 9.07706 1.33326 9.2401C1.39854 9.68363 1.54459 10.0997 1.76755 10.4759C1.82329 10.5698 1.92254 10.6219 2.02418 10.6219C2.07575 10.6219 2.12821 10.6085 2.1759 10.5802C2.31778 10.4965 2.36428 10.3131 2.28052 10.1719C2.0996 9.86724 1.9759 9.51492 1.92314 9.15336Z" fill="#4758DC"/>
<path d="M1.64471 8.24933C1.65156 8.24993 1.65872 8.25023 1.66557 8.25023C1.82087 8.25023 1.95172 8.13011 1.96245 7.97273C1.98629 7.63323 2.05574 7.30386 2.16931 6.99357C2.22564 6.83858 2.14636 6.66749 1.99166 6.61115C1.83607 6.55511 1.66557 6.6341 1.60924 6.7888C1.4769 7.15185 1.39552 7.53606 1.3675 7.93159C1.35648 8.09553 1.48017 8.23801 1.64471 8.24933Z" fill="#4758DC"/>
</g>
<defs>
<clipPath id="clip0_92_487">
<rect width="16" height="16" fill="white"/>
</clipPath>
</defs>
</svg>
