<svg width="24" height="24" viewBox="0 0 24 24" fill="none" xmlns="http://www.w3.org/2000/svg">
<path fill-rule="evenodd" clip-rule="evenodd" d="M5.44528 5.83216L10.8906 9.46236C11.5624 9.91022 12.4376 9.91022 13.1094 9.46236L18.5547 5.83216C19.0142 5.52581 19.1384 4.90494 18.832 4.44541C18.5257 3.98588 17.9048 3.8617 17.4453 4.16806L12 7.79826L6.55468 4.16806C6.09516 3.8617 5.47429 3.98588 5.16793 4.44541C4.86158 4.90493 4.98576 5.5258 5.44528 5.83216ZM10.8906 14.4624L5.44528 10.8322C4.98576 10.5258 4.86158 9.90494 5.16793 9.44541C5.47429 8.98588 6.09516 8.8617 6.55468 9.16806L12 12.7983L17.4453 9.16806C17.9048 8.8617 18.5257 8.98588 18.832 9.44541C19.1384 9.90494 19.0142 10.5258 18.5547 10.8322L13.1094 14.4624C12.4376 14.9102 11.5624 14.9102 10.8906 14.4624ZM10.8906 19.4624L5.44528 15.8322C4.98576 15.5258 4.86158 14.9049 5.16793 14.4454C5.47429 13.9859 6.09516 13.8617 6.55468 14.1681L12 17.7983L17.4453 14.1681C17.9048 13.8617 18.5257 13.9859 18.832 14.4454C19.1384 14.9049 19.0142 15.5258 18.5547 15.8322L13.1094 19.4624C12.4376 19.9102 11.5624 19.9102 10.8906 19.4624Z" fill="#0047FF"/>
</svg>
