<svg width="24" height="24" viewBox="0 0 24 24" fill="none" xmlns="http://www.w3.org/2000/svg">
<path fill-rule="evenodd" clip-rule="evenodd" d="M10.8906 4.5378C11.5624 4.08994 12.4376 4.08994 13.1094 4.5378L18.5547 8.168C19.0142 8.47436 19.1384 9.09523 18.832 9.55475C18.5257 10.0143 17.9048 10.1385 17.4453 9.8321L12 6.2019L6.55468 9.8321C6.09516 10.1385 5.47429 10.0143 5.16793 9.55475C4.86158 9.09523 4.98576 8.47436 5.44528 8.168L10.8906 4.5378ZM13.1094 9.5378L18.5547 13.168C19.0142 13.4744 19.1384 14.0952 18.832 14.5548C18.5257 15.0143 17.9048 15.1385 17.4453 14.8321L12 11.2019L6.55468 14.8321C6.09516 15.1385 5.47429 15.0143 5.16793 14.5548C4.86158 14.0952 4.98576 13.4744 5.44528 13.168L10.8906 9.5378C11.5624 9.08994 12.4376 9.08994 13.1094 9.5378ZM18.5547 18.168L13.1094 14.5378C12.4376 14.0899 11.5624 14.0899 10.8906 14.5378L5.44528 18.168C4.98576 18.4744 4.86158 19.0952 5.16793 19.5548C5.47429 20.0143 6.09516 20.1385 6.55468 19.8321L12 16.2019L17.4453 19.8321C17.9048 20.1385 18.5257 20.0143 18.832 19.5548C19.1384 19.0952 19.0142 18.4744 18.5547 18.168Z" fill="#E32327"/>
</svg>
